<svg width="155" height="50" viewBox="0 0 155 50" fill="none" xmlns="http://www.w3.org/2000/svg">
<path fill-rule="evenodd" clip-rule="evenodd" d="M91.5794 7.26449C91.5667 7.29788 91.5618 10.7293 91.5686 14.8899L91.581 22.4547L96.5713 22.4669L101.562 22.4791V20.966V19.4528H98.291H95.0205L95.0082 13.3409L94.996 7.22909L93.2993 7.21646C91.9676 7.20657 91.5975 7.2169 91.5794 7.26449ZM108.54 7.31315C108.516 7.37256 108.076 8.38302 107.561 9.55856C107.046 10.7341 106.5 11.9877 106.348 12.3443C106.196 12.7009 105.558 14.1707 104.93 15.6104C103.838 18.1133 102.151 21.9926 102.011 22.3232L101.945 22.4798L103.734 22.4672L105.524 22.4547L105.827 21.7102C105.993 21.3007 106.262 20.6361 106.424 20.2333L106.719 19.5008H110.243H113.768L114.363 20.9777L114.957 22.4547L116.797 22.4672C117.809 22.4742 118.637 22.4644 118.637 22.4455C118.637 22.408 117.464 19.6486 115.896 15.9946C115.346 14.7134 114.275 12.2116 113.515 10.4351L112.135 7.20508H110.358H108.582L108.54 7.31315ZM120.256 7.23711C120.239 7.25469 120.224 10.6925 120.224 14.8767V22.4844L124.421 22.4643C128.91 22.4428 128.969 22.4399 129.884 22.1891C131.334 21.7919 132.381 21.02 132.895 19.9693C133.139 19.4706 133.219 19.1255 133.247 18.4521C133.287 17.4675 133.108 16.7323 132.658 16.0375C132.172 15.2876 131.508 14.8007 130.566 14.5049L130.158 14.3766L130.35 14.3151C130.667 14.2135 131.247 13.8956 131.512 13.6778C132.03 13.2524 132.438 12.6181 132.62 11.9546C132.752 11.4765 132.738 10.5078 132.593 10.0389C132.087 8.40146 130.484 7.4338 127.978 7.25335C127.248 7.20085 120.307 7.1862 120.256 7.23711ZM128.064 10.1717C128.766 10.4088 129.124 10.8722 129.16 11.59C129.176 11.9138 129.161 12.0348 129.073 12.2684C128.943 12.6105 128.657 12.9351 128.344 13.0935C127.859 13.3387 127.71 13.3529 125.625 13.3529H123.687V11.6931V10.0332L125.72 10.0496C127.663 10.0653 127.765 10.0706 128.064 10.1717ZM110.421 11.2276C110.492 11.4059 111.017 12.7064 111.587 14.1176C112.157 15.5288 112.617 16.6907 112.608 16.6996C112.599 16.7086 111.53 16.7103 110.233 16.7035L107.875 16.691L108.364 15.4903C108.633 14.8299 109.164 13.5277 109.543 12.5965C109.922 11.6653 110.246 10.9034 110.262 10.9034C110.279 10.9034 110.35 11.0493 110.421 11.2276ZM128.185 16.1551C129.232 16.4517 129.746 17.0618 129.689 17.941C129.649 18.5696 129.33 19.0251 128.722 19.3222C128.139 19.6072 128.079 19.6136 125.792 19.6332L123.687 19.6512V17.8434V16.0355L125.792 16.0544C127.589 16.0705 127.938 16.0852 128.185 16.1551ZM68.4692 29.6875C66.4949 29.9413 65.0601 30.7638 64.2878 32.0847C63.9136 32.7247 63.7551 33.3596 63.7561 34.2143C63.7573 35.2345 63.9867 35.9476 64.531 36.6233C65.2868 37.5615 66.1201 37.9874 68.6287 38.7179C70.8366 39.3609 71.4101 39.6583 71.768 40.3459C71.9006 40.6008 71.8905 41.1675 71.748 41.4595C71.552 41.8611 71.1668 42.1374 70.5827 42.2956C70.1235 42.4199 69.1235 42.4099 68.4861 42.2748C67.1826 41.9982 65.6541 41.269 64.5972 40.4193C64.4385 40.2917 64.2833 40.1679 64.2525 40.144C64.2126 40.1132 64.0011 40.4979 63.519 41.4783C63.1464 42.2359 62.8416 42.8741 62.8416 42.8965C62.8416 42.919 62.9552 43.0276 63.0941 43.138C64.5098 44.2635 66.6036 45.0976 68.5137 45.297C69.1895 45.3675 70.5922 45.3291 71.1614 45.2246C72.2046 45.0328 73.2876 44.5814 73.9285 44.0713C74.6248 43.517 75.1673 42.7253 75.3965 41.929C75.5262 41.4784 75.5798 40.3794 75.4962 39.8857C75.3493 39.0187 75.0039 38.3676 74.375 37.772C73.6162 37.0534 72.7688 36.6532 70.6577 36.0167C69.5255 35.6753 68.9181 35.4549 68.4167 35.2039C67.7353 34.8628 67.5073 34.5676 67.4693 33.9779C67.4335 33.4202 67.6134 33.0958 68.0905 32.8578C68.518 32.6445 68.8276 32.5971 69.5995 32.6271C70.1258 32.6475 70.399 32.6848 70.8501 32.7981C71.8984 33.0613 72.9754 33.4907 73.8049 33.9761C73.9721 34.074 74.1172 34.1457 74.1273 34.1356C74.1633 34.0996 75.4436 31.3555 75.4436 31.3143C75.4436 31.2664 74.9522 30.9742 74.4576 30.728C73.5492 30.2758 72.1007 29.8479 71.004 29.7077C70.3956 29.63 69.0034 29.6189 68.4692 29.6875ZM83.6721 29.7566C81.8542 30.0322 80.3682 30.7681 79.1196 32.0109C77.963 33.1623 77.2531 34.523 76.979 36.1139C76.8433 36.9021 76.845 38.0634 76.9833 38.8921C77.4382 41.6188 79.2391 43.8232 81.8576 44.8583C82.8277 45.2419 83.9139 45.4136 85.1116 45.3726C86.3256 45.3311 87.1717 45.1194 88.3292 44.5674C89.3186 44.0956 90.0549 43.6038 90.7344 42.9609L91.0476 42.6647L90.9106 42.5019C90.8352 42.4124 90.3823 41.9134 89.9042 41.393L89.0349 40.4468L88.8409 40.6144C87.9516 41.3831 86.9904 41.9025 86.0388 42.1284C85.6781 42.214 85.5115 42.2254 84.8951 42.2064C84.1218 42.1826 83.8636 42.1308 83.2528 41.8769C80.6091 40.7779 79.5855 37.3399 81.1538 34.8272C81.6391 34.0498 82.5141 33.3139 83.3197 33.0059C84.2406 32.6537 85.2476 32.5871 86.1316 32.8198C87.0437 33.0599 87.8512 33.5289 88.6037 34.2557L89.0414 34.6786L89.277 34.3784C89.4066 34.2134 89.855 33.6601 90.2734 33.1489C91.1547 32.0721 91.1361 32.2533 90.4266 31.6605C89.3503 30.7613 88.0421 30.1296 86.6267 29.8256C85.9953 29.69 84.3629 29.6518 83.6721 29.7566ZM116.04 29.7539C114.83 29.9318 113.793 30.2978 112.841 30.8826C111.235 31.869 109.981 33.4941 109.469 35.2541C109.197 36.1891 109.096 37.4142 109.207 38.4315C109.497 41.0741 111.076 43.3049 113.514 44.5165C114.704 45.1077 115.939 45.3872 117.362 45.3872C118.852 45.3872 120.055 45.102 121.33 44.4465C122.744 43.7199 123.801 42.7152 124.58 41.3578C125.191 40.294 125.496 39.1634 125.547 37.7763C125.633 35.4739 124.836 33.4896 123.19 31.907C121.971 30.7341 120.445 30.0064 118.679 29.7558C118.072 29.6697 116.619 29.6687 116.04 29.7539ZM133.177 29.7552C130.433 30.1719 128.208 31.7779 127.082 34.154C126.658 35.0497 126.463 35.7888 126.371 36.8517C126.245 38.3022 126.515 39.7539 127.143 41.003C127.949 42.6082 129.156 43.7808 130.808 44.566C132.018 45.1412 133.142 45.3896 134.532 45.3887C135.943 45.3878 137.154 45.119 138.334 44.5452C140.792 43.3493 142.363 41.153 142.691 38.4537C142.771 37.7917 142.721 36.5246 142.59 35.9031C141.93 32.7766 139.554 30.4779 136.308 29.8238C135.634 29.6881 133.874 29.6495 133.177 29.7552ZM93.0961 37.5361V45.1489H94.8277H96.5592V42.147V39.1451H99.9984H103.437V42.147V45.1489H105.169H106.901V37.5361V29.9234H105.169H103.437V33.0933V36.2633H99.9984H96.5592V33.0933V29.9234H94.8277H93.0961V37.5361ZM144.995 37.5361V45.1489H149.998H155V43.636V42.123H151.729H148.459V36.0232V29.9234H146.727H144.995V37.5361ZM118.06 32.7312C119.094 32.8889 119.938 33.329 120.659 34.0868C121.662 35.1412 122.125 36.4784 122 37.9603C121.979 38.2069 121.916 38.5905 121.86 38.8129C121.728 39.3402 121.312 40.1813 120.96 40.6324C120.282 41.5018 119.206 42.1453 118.144 42.3162C117.579 42.4074 116.694 42.3551 116.17 42.1996C114.604 41.7353 113.361 40.4757 112.885 38.8708C112.729 38.3468 112.672 37.2984 112.768 36.7078C113.106 34.6126 114.765 32.981 116.832 32.7111C117.287 32.6517 117.568 32.6563 118.06 32.7312ZM135.656 32.806C136.433 32.9913 137.175 33.4159 137.769 34.0143C138.194 34.4432 138.402 34.7283 138.657 35.2307C139.044 35.9936 139.179 36.591 139.179 37.5397C139.18 38.9105 138.73 40.0539 137.829 40.9718C136.894 41.9238 135.865 42.3632 134.571 42.3632C133.315 42.3632 132.256 41.9044 131.311 40.9507C130.362 39.9935 129.892 38.8539 129.892 37.5121C129.892 34.3912 132.698 32.1005 135.656 32.806Z" fill="black"/>
<path fill-rule="evenodd" clip-rule="evenodd" d="M80.6388 5.56625C80.8387 4.71967 81.5018 4.08135 82.3218 3.94605C82.6834 3.88644 82.7764 3.88582 83.1552 3.94053C83.5829 4.00225 83.9685 4.18793 84.2808 4.48246C84.7462 4.92131 84.937 5.4029 84.9317 6.1246C84.9235 7.22704 84.3136 8.02069 83.2896 8.26166C82.932 8.34581 82.2753 8.30061 81.9249 8.16776C81.4023 7.96959 80.9461 7.5098 80.7317 6.96513C80.5994 6.62892 80.5529 5.9296 80.6388 5.56625ZM66.2568 10.2552C67.2439 7.95696 68.0726 6.04934 68.0983 6.01606C68.135 5.9686 68.6148 5.95823 70.3153 5.96803L72.4855 5.98051L73.4503 8.28596C73.9809 9.55396 74.7789 11.456 75.2236 12.5126C77.7531 18.5229 78.653 20.6662 79.2218 22.0346L79.2867 22.1907L77.0164 22.1906L74.7462 22.1905L74.1982 20.7734L73.6502 19.3563L70.1338 19.3686L66.6174 19.3809L66.0628 20.7738L65.5082 22.1667L63.3274 22.1792C61.2649 22.191 61.148 22.1871 61.1715 22.1071C61.1852 22.0606 61.9312 20.3151 62.8292 18.2282C63.7273 16.1413 65.2697 12.5534 66.2568 10.2552ZM80.7671 9.68633C80.7492 9.70425 80.7346 12.525 80.7346 15.9548V22.1907H82.803H84.8715L84.8593 15.9348L84.8471 9.67884L82.8234 9.6663C81.7104 9.65943 80.7851 9.66842 80.7671 9.68633ZM70.9868 12.4428C71.396 13.5115 71.8736 14.7526 72.048 15.2008C72.2225 15.649 72.3653 16.0327 72.3653 16.0533C72.3653 16.074 70.1527 16.0909 70.1527 16.0909C70.1527 16.0909 67.9401 16.0737 67.9401 16.0526C67.9401 16.0038 68.4307 14.7456 69.7681 11.365C70.0348 10.6911 70.1779 10.3842 70.2039 10.4306C70.2252 10.4687 70.5775 11.3741 70.9868 12.4428Z" fill="url(#paint0_linear_202_4072)"/>
<path d="M41.7739 2.88239V1.44119V0L45.682 0.0122948L49.5901 0.0245897L49.6022 11.8399L49.6143 23.6552L51.6943 25.7327L53.7743 27.8101L51.6221 29.9596L49.4698 32.1091V41.0546V50H45.6219H41.7739V48.5591V47.1182H44.2029H46.632V39.0134V30.9085L48.1825 29.3596L49.7331 27.8108L48.2306 26.3077L46.7282 24.8047V13.8435V2.88239H44.251H41.7739Z" fill="url(#paint1_linear_202_4072)"/>
<path d="M4.30451 17.8913V8.94592V0.000488281H8.15247H12.0004V1.44139V2.8823H9.5714H7.14238V10.9871V19.092L5.59146 20.6412L4.04054 22.1904L5.54336 23.6917L7.04618 25.1929V36.1555V47.1181H9.5233H12.0004V48.559V49.9999H8.10437H4.20831V38.1967V26.3935L2.10416 24.2919L0 22.1904L2.15226 20.0409L4.30451 17.8913Z" fill="url(#paint2_linear_202_4072)"/>
<defs>
<linearGradient id="paint0_linear_202_4072" x1="73.0505" y1="3.90039" x2="73.0505" y2="22.1907" gradientUnits="userSpaceOnUse">
<stop stop-color="#FF1D25"/>
<stop offset="1" stop-color="#FFD500"/>
</linearGradient>
<linearGradient id="paint1_linear_202_4072" x1="47.7741" y1="0" x2="47.7741" y2="50" gradientUnits="userSpaceOnUse">
<stop stop-color="#FFD500"/>
<stop offset="1" stop-color="#FF1D25"/>
</linearGradient>
<linearGradient id="paint2_linear_202_4072" x1="6.00021" y1="0.000488281" x2="6.00021" y2="49.9999" gradientUnits="userSpaceOnUse">
<stop stop-color="#FF1D25"/>
<stop offset="1" stop-color="#FFD500"/>
</linearGradient>
</defs>
</svg>
